<svg width="26" height="26" viewBox="0 0 26 26" fill="none" xmlns="http://www.w3.org/2000/svg">
<path d="M25.0999 20.0623L16.3499 2.56233C16.0376 1.94158 15.559 1.41981 14.9675 1.05522C14.376 0.690624 13.6948 0.497559 12.9999 0.497559C12.3051 0.497559 11.6239 0.690624 11.0323 1.05522C10.4408 1.41981 9.96218 1.94158 9.64992 2.56233L0.899916 20.0623C0.556178 20.753 0.433804 21.5328 0.549481 22.2955C0.665157 23.0583 1.01325 23.7668 1.54631 24.3244C2.07937 24.8821 2.77144 25.2618 3.52818 25.4117C4.28491 25.5617 5.06948 25.4746 5.77492 25.1623L12.4874 22.1623C12.6497 22.0943 12.8239 22.0592 12.9999 22.0592C13.1759 22.0592 13.3501 22.0943 13.5124 22.1623L20.2249 25.1623C20.9304 25.4746 21.7149 25.5617 22.4717 25.4117C23.2284 25.2618 23.9205 24.8821 24.4535 24.3244C24.9866 23.7668 25.3347 23.0583 25.4504 22.2955C25.566 21.5328 25.4437 20.753 25.0999 20.0623V20.0623ZM22.5999 22.5623C22.4215 22.7481 22.19 22.8742 21.9372 22.9235C21.6844 22.9727 21.4225 22.9426 21.1874 22.8373L14.4749 19.8498C13.9949 19.6362 13.4753 19.5257 12.9499 19.5257C12.4245 19.5257 11.9049 19.6362 11.4249 19.8498L4.76242 22.8748C4.52862 22.9764 4.26935 23.0041 4.01938 22.9542C3.7694 22.9042 3.54067 22.7791 3.36385 22.5954C3.18703 22.4118 3.07058 22.1785 3.03011 21.9268C2.98963 21.6752 3.02708 21.4171 3.13742 21.1873L11.8874 3.68733C11.9923 3.48258 12.1517 3.31075 12.348 3.19076C12.5443 3.07077 12.7699 3.00728 12.9999 3.00728C13.23 3.00728 13.4556 3.07077 13.6519 3.19076C13.8482 3.31075 14.0075 3.48258 14.1124 3.68733L22.8624 21.1873C22.9755 21.4163 23.0158 21.6744 22.9778 21.9269C22.9398 22.1794 22.8254 22.4143 22.6499 22.5998L22.5999 22.5623Z" fill="white"/>
</svg>
