<svg width="30" height="30" viewBox="0 0 30 30" fill="none" xmlns="http://www.w3.org/2000/svg">
<path d="M14.9999 17.8335C15.2801 17.8335 15.554 17.7504 15.787 17.5947C16.0199 17.4391 16.2015 17.2178 16.3087 16.959C16.416 16.7001 16.444 16.4153 16.3894 16.1405C16.3347 15.8656 16.1998 15.6132 16.0017 15.4151C15.8035 15.217 15.5511 15.082 15.2763 15.0274C15.0015 14.9727 14.7166 15.0008 14.4578 15.108C14.1989 15.2152 13.9777 15.3968 13.822 15.6298C13.6663 15.8627 13.5833 16.1366 13.5833 16.4168C13.5833 16.7926 13.7325 17.1529 13.9982 17.4186C14.2639 17.6842 14.6242 17.8335 14.9999 17.8335ZM22.0833 17.8335C22.3634 17.8335 22.6373 17.7504 22.8703 17.5947C23.1033 17.4391 23.2849 17.2178 23.3921 16.959C23.4993 16.7001 23.5274 16.4153 23.4727 16.1405C23.418 15.8656 23.2831 15.6132 23.085 15.4151C22.8869 15.217 22.6344 15.082 22.3596 15.0274C22.0848 14.9727 21.8 15.0008 21.5411 15.108C21.2823 15.2152 21.061 15.3968 20.9053 15.6298C20.7497 15.8627 20.6666 16.1366 20.6666 16.4168C20.6666 16.7926 20.8158 17.1529 21.0815 17.4186C21.3472 17.6842 21.7075 17.8335 22.0833 17.8335ZM14.9999 23.5002C15.2801 23.5002 15.554 23.4171 15.787 23.2614C16.0199 23.1057 16.2015 22.8845 16.3087 22.6256C16.416 22.3668 16.444 22.0819 16.3894 21.8071C16.3347 21.5323 16.1998 21.2799 16.0017 21.0818C15.8035 20.8836 15.5511 20.7487 15.2763 20.694C15.0015 20.6394 14.7166 20.6674 14.4578 20.7747C14.1989 20.8819 13.9777 21.0635 13.822 21.2964C13.6663 21.5294 13.5833 21.8033 13.5833 22.0835C13.5833 22.4592 13.7325 22.8196 13.9982 23.0852C14.2639 23.3509 14.6242 23.5002 14.9999 23.5002ZM22.0833 23.5002C22.3634 23.5002 22.6373 23.4171 22.8703 23.2614C23.1033 23.1057 23.2849 22.8845 23.3921 22.6256C23.4993 22.3668 23.5274 22.0819 23.4727 21.8071C23.418 21.5323 23.2831 21.2799 23.085 21.0818C22.8869 20.8836 22.6344 20.7487 22.3596 20.694C22.0848 20.6394 21.8 20.6674 21.5411 20.7747C21.2823 20.8819 21.061 21.0635 20.9053 21.2964C20.7497 21.5294 20.6666 21.8033 20.6666 22.0835C20.6666 22.4592 20.8158 22.8196 21.0815 23.0852C21.3472 23.3509 21.7075 23.5002 22.0833 23.5002ZM7.91659 17.8335C8.19678 17.8335 8.47067 17.7504 8.70364 17.5947C8.93661 17.4391 9.11819 17.2178 9.22541 16.959C9.33264 16.7001 9.36069 16.4153 9.30603 16.1405C9.25137 15.8656 9.11644 15.6132 8.91832 15.4151C8.7202 15.217 8.46777 15.082 8.19296 15.0274C7.91816 14.9727 7.63331 15.0008 7.37445 15.108C7.11559 15.2152 6.89434 15.3968 6.73867 15.6298C6.583 15.8627 6.49992 16.1366 6.49992 16.4168C6.49992 16.7926 6.64917 17.1529 6.91485 17.4186C7.18053 17.6842 7.54086 17.8335 7.91659 17.8335ZM24.9166 3.66683H23.4999V2.25016C23.4999 1.87444 23.3507 1.5141 23.085 1.24843C22.8193 0.982752 22.459 0.833496 22.0833 0.833496C21.7075 0.833496 21.3472 0.982752 21.0815 1.24843C20.8158 1.5141 20.6666 1.87444 20.6666 2.25016V3.66683H9.33325V2.25016C9.33325 1.87444 9.184 1.5141 8.91832 1.24843C8.65264 0.982752 8.29231 0.833496 7.91659 0.833496C7.54086 0.833496 7.18053 0.982752 6.91485 1.24843C6.64917 1.5141 6.49992 1.87444 6.49992 2.25016V3.66683H5.08325C3.95608 3.66683 2.87508 4.1146 2.07805 4.91163C1.28102 5.70866 0.833252 6.78966 0.833252 7.91683V24.9168C0.833252 26.044 1.28102 27.125 2.07805 27.922C2.87508 28.7191 3.95608 29.1668 5.08325 29.1668H24.9166C26.0438 29.1668 27.1248 28.7191 27.9218 27.922C28.7188 27.125 29.1666 26.044 29.1666 24.9168V7.91683C29.1666 6.78966 28.7188 5.70866 27.9218 4.91163C27.1248 4.1146 26.0438 3.66683 24.9166 3.66683V3.66683ZM26.3333 24.9168C26.3333 25.2926 26.184 25.6529 25.9183 25.9186C25.6526 26.1842 25.2923 26.3335 24.9166 26.3335H5.08325C4.70753 26.3335 4.34719 26.1842 4.08152 25.9186C3.81584 25.6529 3.66659 25.2926 3.66659 24.9168V12.1668H26.3333V24.9168ZM26.3333 9.3335H3.66659V7.91683C3.66659 7.54111 3.81584 7.18077 4.08152 6.91509C4.34719 6.64942 4.70753 6.50016 5.08325 6.50016H24.9166C25.2923 6.50016 25.6526 6.64942 25.9183 6.91509C26.184 7.18077 26.3333 7.54111 26.3333 7.91683V9.3335ZM7.91659 23.5002C8.19678 23.5002 8.47067 23.4171 8.70364 23.2614C8.93661 23.1057 9.11819 22.8845 9.22541 22.6256C9.33264 22.3668 9.36069 22.0819 9.30603 21.8071C9.25137 21.5323 9.11644 21.2799 8.91832 21.0818C8.7202 20.8836 8.46777 20.7487 8.19296 20.694C7.91816 20.6394 7.63331 20.6674 7.37445 20.7747C7.11559 20.8819 6.89434 21.0635 6.73867 21.2964C6.583 21.5294 6.49992 21.8033 6.49992 22.0835C6.49992 22.4592 6.64917 22.8196 6.91485 23.0852C7.18053 23.3509 7.54086 23.5002 7.91659 23.5002Z" fill="white"/>
</svg>
