<svg width="30" height="30" viewBox="0 0 30 30" fill="none" xmlns="http://www.w3.org/2000/svg">
<path d="M24.9166 15.0002H14.9999V5.0835C14.9999 4.2335 14.4333 3.66683 13.5833 3.66683C6.49992 3.66683 0.833252 9.3335 0.833252 16.4168C0.833252 23.5002 6.49992 29.1668 13.5833 29.1668C20.6666 29.1668 26.3333 23.5002 26.3333 16.4168C26.3333 15.5668 25.7666 15.0002 24.9166 15.0002ZM14.9999 26.1918C9.61659 27.0418 4.51659 23.2168 3.80825 17.8335C2.95825 12.4502 6.78325 7.35016 12.1666 6.64183V16.4168C12.1666 17.2668 12.7333 17.8335 13.5833 17.8335H23.3583C22.7916 22.2252 19.3916 25.6252 14.9999 26.1918ZM19.2499 0.833496C18.3999 0.833496 17.8333 1.40016 17.8333 2.25016V10.7502C17.8333 11.6002 18.3999 12.1668 19.2499 12.1668H27.7499C28.5999 12.1668 29.1666 11.6002 29.1666 10.7502C29.1666 5.22516 24.7749 0.833496 19.2499 0.833496ZM20.6666 9.3335V3.8085C23.4999 4.37516 25.6249 6.50016 26.1916 9.3335H20.6666Z" fill="white"/>
</svg>
