<svg width="31" height="31" viewBox="0 0 31 31" fill="none" xmlns="http://www.w3.org/2000/svg">
<path d="M27.3478 12.1546H18.2319V3.03865C18.2319 2.23275 17.9117 1.45986 17.3419 0.89C16.772 0.320143 15.9991 0 15.1932 0C14.3873 0 13.6144 0.320143 13.0446 0.89C12.4747 1.45986 12.1546 2.23275 12.1546 3.03865V12.1546H3.03865C2.23275 12.1546 1.45986 12.4747 0.89 13.0446C0.320143 13.6144 0 14.3873 0 15.1932C0 15.9991 0.320143 16.772 0.89 17.3419C1.45986 17.9117 2.23275 18.2319 3.03865 18.2319H12.1546V27.3478C12.1546 28.1537 12.4747 28.9266 13.0446 29.4965C13.6144 30.0663 14.3873 30.3865 15.1932 30.3865C15.9991 30.3865 16.772 30.0663 17.3419 29.4965C17.9117 28.9266 18.2319 28.1537 18.2319 27.3478V18.2319H27.3478C28.1537 18.2319 28.9266 17.9117 29.4965 17.3419C30.0663 16.772 30.3865 15.9991 30.3865 15.1932C30.3865 14.3873 30.0663 13.6144 29.4965 13.0446C28.9266 12.4747 28.1537 12.1546 27.3478 12.1546Z" fill="white"/>
</svg>
