<svg width="32" height="32" viewBox="0 0 32 32" fill="none" xmlns="http://www.w3.org/2000/svg">
<path d="M31.0182 1.92127C30.9543 1.67863 30.8271 1.45729 30.6497 1.27986C30.4722 1.10243 30.2509 0.975267 30.0082 0.911346C27.1021 0.15653 24.0419 0.237827 21.18 1.14588C18.318 2.05393 15.7708 3.75181 13.8314 6.04401L12.2519 7.91944L8.56179 7.02909C7.66467 6.71633 6.68469 6.73875 5.80281 7.09221C4.92093 7.44566 4.19672 8.10627 3.76394 8.95205L0.647004 14.4769C0.537791 14.6704 0.475637 14.8869 0.465567 15.1089C0.455496 15.3309 0.497791 15.5521 0.589034 15.7547C0.680276 15.9574 0.817906 16.1357 0.990801 16.2752C1.1637 16.4148 1.36701 16.5118 1.5843 16.5583L5.93736 17.4914C5.56861 18.6139 5.30531 19.7683 5.15087 20.9397C5.12287 21.1549 5.14467 21.3737 5.21459 21.5791C5.28451 21.7846 5.40068 21.9712 5.55414 22.1246L9.94595 26.5164C10.0774 26.648 10.2336 26.7524 10.4054 26.8237C10.5773 26.8949 10.7615 26.9315 10.9475 26.9315C10.9883 26.9315 11.0292 26.9295 11.0707 26.926C12.2682 26.8183 13.4512 26.5857 14.6004 26.2318L15.5123 30.4863C15.5589 30.7036 15.6559 30.9068 15.7955 31.0796C15.9351 31.2525 16.1134 31.39 16.316 31.4813C16.5186 31.5725 16.7398 31.6148 16.9617 31.6048C17.1837 31.5948 17.4002 31.5327 17.5937 31.4236L23.1262 28.3032C23.9048 27.8301 24.5131 27.1219 24.8632 26.2807C25.2133 25.4395 25.2871 24.5088 25.0741 23.623L24.1268 19.7144L25.8793 18.1029C28.18 16.169 29.8844 13.6216 30.7942 10.757C31.7039 7.89234 31.7816 4.8283 31.0182 1.92127V1.92127ZM4.0607 14.1912L6.26525 10.2816C6.40218 10.0161 6.63547 9.81316 6.91727 9.71425C7.19908 9.61534 7.50805 9.62799 7.78083 9.74962L10.2138 10.3392L9.29299 11.4326C8.41998 12.4789 7.66492 13.6182 7.04146 14.8299L4.0607 14.1912ZM21.7268 25.8393L17.8794 28.0092L17.271 25.1693C18.5043 24.5542 19.6534 23.7829 20.6899 22.8745L21.7433 21.906L22.3148 24.2642C22.3889 24.5553 22.3724 24.8622 22.2673 25.1437C22.1622 25.4252 21.9736 25.6679 21.7268 25.8393V25.8393ZM24.0137 15.9718L18.7939 20.7689C16.7278 22.5557 14.1793 23.6915 11.4691 24.0332L8.06306 20.6271C8.52053 17.9099 9.69465 15.364 11.4643 13.252L13.842 10.429C13.8816 10.3876 13.9185 10.3437 13.9526 10.2976L15.9855 7.88402C17.4885 6.10879 19.4357 4.76425 21.6284 3.98768C23.821 3.21112 26.1804 3.03036 28.4657 3.46385C28.9097 5.75633 28.7308 8.12592 27.9478 10.3258C27.1648 12.5257 25.8063 14.4754 24.0137 15.9718V15.9718ZM22.7061 7.23978C22.2858 7.23978 21.875 7.36441 21.5255 7.59791C21.1761 7.8314 20.9037 8.16328 20.7429 8.55158C20.582 8.93987 20.54 9.36714 20.622 9.77935C20.7039 10.1916 20.9063 10.5702 21.2035 10.8674C21.5007 11.1646 21.8793 11.367 22.2916 11.4489C22.7038 11.5309 23.131 11.4889 23.5193 11.328C23.9076 11.1672 24.2395 10.8948 24.473 10.5454C24.7065 10.1959 24.8311 9.78507 24.8311 9.36478C24.8311 9.08571 24.7762 8.80937 24.6694 8.55154C24.5626 8.29371 24.4061 8.05944 24.2087 7.86211C24.0114 7.66478 23.7771 7.50825 23.5193 7.40146C23.2615 7.29468 22.9851 7.23973 22.7061 7.23975L22.7061 7.23978Z" fill="white"/>
</svg>
