<svg width="30" height="30" viewBox="0 0 30 30" fill="none" xmlns="http://www.w3.org/2000/svg">
<path d="M10.3251 12.1668C10.5905 12.4306 10.9496 12.5787 11.3238 12.5787C11.6981 12.5787 12.0571 12.4306 12.3226 12.1668C12.5864 11.9013 12.7345 11.5423 12.7345 11.168C12.7345 10.7938 12.5864 10.4347 12.3226 10.1693L3.44008 1.24427C3.17331 0.977503 2.8115 0.827637 2.43424 0.827637C2.05698 0.827637 1.69517 0.977503 1.42841 1.24427C1.16165 1.51103 1.01178 1.87284 1.01178 2.2501C1.01178 2.62736 1.16165 2.98917 1.42841 3.25593L10.3251 12.1668ZM27.7501 17.8334C27.3744 17.8334 27.014 17.9827 26.7483 18.2484C26.4827 18.514 26.3334 18.8744 26.3334 19.2501V24.3359L19.8734 17.8334C19.6029 17.5629 19.236 17.4109 18.8534 17.4109C18.4708 17.4109 18.1039 17.5629 17.8334 17.8334C17.5629 18.104 17.4109 18.4709 17.4109 18.8534C17.4109 19.236 17.5629 19.6029 17.8334 19.8734L24.3359 26.3334H19.2501C18.8744 26.3334 18.514 26.4827 18.2483 26.7484C17.9827 27.014 17.8334 27.3744 17.8334 27.7501C17.8334 28.1258 17.9827 28.4862 18.2483 28.7518C18.514 29.0175 18.8744 29.1668 19.2501 29.1668H27.7501C27.9352 29.1645 28.1181 29.126 28.2884 29.0534C28.6346 28.9097 28.9097 28.6346 29.0534 28.2884C29.126 28.1181 29.1645 27.9352 29.1667 27.7501V19.2501C29.1667 18.8744 29.0175 18.514 28.7518 18.2484C28.4861 17.9827 28.1258 17.8334 27.7501 17.8334ZM29.0534 1.71177C28.9097 1.3656 28.6346 1.09052 28.2884 0.946766C28.1181 0.874175 27.9352 0.835671 27.7501 0.833433H19.2501C18.8744 0.833433 18.514 0.982689 18.2483 1.24837C17.9827 1.51404 17.8334 1.87438 17.8334 2.2501C17.8334 2.62582 17.9827 2.98616 18.2483 3.25183C18.514 3.51751 18.8744 3.66677 19.2501 3.66677H24.3359L1.24424 26.7443C1.11146 26.876 1.00607 27.0326 0.934147 27.2053C0.862224 27.3779 0.825195 27.5631 0.825195 27.7501C0.825195 27.9371 0.862224 28.1223 0.934147 28.2949C1.00607 28.4675 1.11146 28.6242 1.24424 28.7559C1.37594 28.8887 1.53263 28.9941 1.70526 29.066C1.87789 29.138 2.06306 29.175 2.25008 29.175C2.43709 29.175 2.62226 29.138 2.79489 29.066C2.96753 28.9941 3.12421 28.8887 3.25591 28.7559L26.3334 5.66427V10.7501C26.3334 11.1258 26.4827 11.4862 26.7483 11.7518C27.014 12.0175 27.3744 12.1668 27.7501 12.1668C28.1258 12.1668 28.4861 12.0175 28.7518 11.7518C29.0175 11.4862 29.1667 11.1258 29.1667 10.7501V2.2501C29.1645 2.06497 29.126 1.88208 29.0534 1.71177V1.71177Z" fill="white"/>
</svg>
